<mxfile host="app.diagrams.net" modified="2023-11-24T01:27:09.726Z" agent="Mozilla/5.0 (Windows NT 10.0; Win64; x64) AppleWebKit/537.36 (KHTML, like Gecko) Chrome/119.0.0.0 Safari/537.36" etag="14CWOTSDa9o5_w24qE-p" version="21.7.4" type="device">
  <diagram name="Страница 1" id="ABzwerI71XnaUUXjoN9Y">
    <mxGraphModel dx="651" dy="701" grid="1" gridSize="10" guides="1" tooltips="1" connect="1" arrows="1" fold="1" page="1" pageScale="1" pageWidth="827" pageHeight="1169" math="0" shadow="0">
      <root>
        <mxCell id="0" />
        <mxCell id="1" parent="0" />
        <mxCell id="GpYa1Dm-OQPfosF5BOAB-1" value="Клиент" style="shape=umlActor;verticalLabelPosition=bottom;verticalAlign=top;html=1;outlineConnect=0;" vertex="1" parent="1">
          <mxGeometry x="90" y="250" width="30" height="60" as="geometry" />
        </mxCell>
        <mxCell id="GpYa1Dm-OQPfosF5BOAB-2" value="Администратор" style="shape=umlActor;verticalLabelPosition=bottom;verticalAlign=top;html=1;outlineConnect=0;" vertex="1" parent="1">
          <mxGeometry x="650" y="200" width="30" height="60" as="geometry" />
        </mxCell>
        <mxCell id="GpYa1Dm-OQPfosF5BOAB-3" value="" style="endArrow=none;html=1;rounded=0;exitX=0.5;exitY=0.5;exitDx=0;exitDy=0;exitPerimeter=0;" edge="1" parent="1" source="GpYa1Dm-OQPfosF5BOAB-1" target="GpYa1Dm-OQPfosF5BOAB-4">
          <mxGeometry width="50" height="50" relative="1" as="geometry">
            <mxPoint x="340" y="310" as="sourcePoint" />
            <mxPoint x="180" y="280" as="targetPoint" />
          </mxGeometry>
        </mxCell>
        <mxCell id="GpYa1Dm-OQPfosF5BOAB-4" value="управление &lt;br&gt;счетом" style="ellipse;whiteSpace=wrap;html=1;" vertex="1" parent="1">
          <mxGeometry x="156" y="241.25" width="110" height="77.5" as="geometry" />
        </mxCell>
        <mxCell id="GpYa1Dm-OQPfosF5BOAB-5" value="зарегистрироваться в системе" style="ellipse;whiteSpace=wrap;html=1;" vertex="1" parent="1">
          <mxGeometry x="36.25" y="140" width="137.5" height="75" as="geometry" />
        </mxCell>
        <mxCell id="GpYa1Dm-OQPfosF5BOAB-7" value="" style="endArrow=none;html=1;rounded=0;entryX=0.5;entryY=1;entryDx=0;entryDy=0;" edge="1" parent="1" source="GpYa1Dm-OQPfosF5BOAB-1" target="GpYa1Dm-OQPfosF5BOAB-5">
          <mxGeometry width="50" height="50" relative="1" as="geometry">
            <mxPoint x="340" y="310" as="sourcePoint" />
            <mxPoint x="390" y="260" as="targetPoint" />
          </mxGeometry>
        </mxCell>
        <mxCell id="GpYa1Dm-OQPfosF5BOAB-8" value="заблокировать счет" style="ellipse;whiteSpace=wrap;html=1;" vertex="1" parent="1">
          <mxGeometry x="354" y="161.25" width="120" height="80" as="geometry" />
        </mxCell>
        <mxCell id="GpYa1Dm-OQPfosF5BOAB-9" value="сделать платеж" style="ellipse;whiteSpace=wrap;html=1;" vertex="1" parent="1">
          <mxGeometry x="354" y="310" width="120" height="80" as="geometry" />
        </mxCell>
        <mxCell id="GpYa1Dm-OQPfosF5BOAB-10" value="пополнить счет" style="ellipse;whiteSpace=wrap;html=1;" vertex="1" parent="1">
          <mxGeometry x="180" y="390" width="120" height="80" as="geometry" />
        </mxCell>
        <mxCell id="GpYa1Dm-OQPfosF5BOAB-12" value="привязать карту" style="ellipse;whiteSpace=wrap;html=1;" vertex="1" parent="1">
          <mxGeometry x="236" y="80" width="120" height="80" as="geometry" />
        </mxCell>
        <mxCell id="GpYa1Dm-OQPfosF5BOAB-14" value="разблокировать&lt;br&gt;&amp;nbsp;счет" style="ellipse;whiteSpace=wrap;html=1;" vertex="1" parent="1">
          <mxGeometry x="490" y="190" width="120" height="80" as="geometry" />
        </mxCell>
        <mxCell id="GpYa1Dm-OQPfosF5BOAB-19" value="" style="endArrow=block;dashed=1;endFill=0;endSize=12;html=1;rounded=0;entryX=0.5;entryY=0;entryDx=0;entryDy=0;exitX=0.5;exitY=1;exitDx=0;exitDy=0;" edge="1" parent="1" source="GpYa1Dm-OQPfosF5BOAB-4" target="GpYa1Dm-OQPfosF5BOAB-10">
          <mxGeometry width="160" relative="1" as="geometry">
            <mxPoint x="150" y="430" as="sourcePoint" />
            <mxPoint x="255" y="432" as="targetPoint" />
          </mxGeometry>
        </mxCell>
        <mxCell id="GpYa1Dm-OQPfosF5BOAB-21" value="include" style="edgeLabel;html=1;align=center;verticalAlign=middle;resizable=0;points=[];" vertex="1" connectable="0" parent="GpYa1Dm-OQPfosF5BOAB-19">
          <mxGeometry x="0.067" y="-1" relative="1" as="geometry">
            <mxPoint as="offset" />
          </mxGeometry>
        </mxCell>
        <mxCell id="GpYa1Dm-OQPfosF5BOAB-22" value="" style="endArrow=block;dashed=1;endFill=0;endSize=12;html=1;rounded=0;entryX=0;entryY=1;entryDx=0;entryDy=0;exitX=0.5;exitY=0;exitDx=0;exitDy=0;" edge="1" parent="1" source="GpYa1Dm-OQPfosF5BOAB-4" target="GpYa1Dm-OQPfosF5BOAB-12">
          <mxGeometry width="160" relative="1" as="geometry">
            <mxPoint x="221" y="329" as="sourcePoint" />
            <mxPoint x="250" y="400" as="targetPoint" />
          </mxGeometry>
        </mxCell>
        <mxCell id="GpYa1Dm-OQPfosF5BOAB-23" value="include" style="edgeLabel;html=1;align=center;verticalAlign=middle;resizable=0;points=[];" vertex="1" connectable="0" parent="GpYa1Dm-OQPfosF5BOAB-22">
          <mxGeometry x="0.067" y="-1" relative="1" as="geometry">
            <mxPoint as="offset" />
          </mxGeometry>
        </mxCell>
        <mxCell id="GpYa1Dm-OQPfosF5BOAB-24" value="" style="endArrow=block;dashed=1;endFill=0;endSize=12;html=1;rounded=0;entryX=-0.005;entryY=0.635;entryDx=0;entryDy=0;exitX=1;exitY=0;exitDx=0;exitDy=0;entryPerimeter=0;" edge="1" parent="1" source="GpYa1Dm-OQPfosF5BOAB-4" target="GpYa1Dm-OQPfosF5BOAB-8">
          <mxGeometry width="160" relative="1" as="geometry">
            <mxPoint x="231" y="339" as="sourcePoint" />
            <mxPoint x="260" y="410" as="targetPoint" />
          </mxGeometry>
        </mxCell>
        <mxCell id="GpYa1Dm-OQPfosF5BOAB-25" value="include" style="edgeLabel;html=1;align=center;verticalAlign=middle;resizable=0;points=[];" vertex="1" connectable="0" parent="GpYa1Dm-OQPfosF5BOAB-24">
          <mxGeometry x="0.067" y="-1" relative="1" as="geometry">
            <mxPoint as="offset" />
          </mxGeometry>
        </mxCell>
        <mxCell id="GpYa1Dm-OQPfosF5BOAB-26" value="" style="endArrow=block;dashed=1;endFill=0;endSize=12;html=1;rounded=0;entryX=0;entryY=0.5;entryDx=0;entryDy=0;exitX=0.929;exitY=0.825;exitDx=0;exitDy=0;exitPerimeter=0;" edge="1" parent="1" source="GpYa1Dm-OQPfosF5BOAB-4" target="GpYa1Dm-OQPfosF5BOAB-9">
          <mxGeometry width="160" relative="1" as="geometry">
            <mxPoint x="241" y="349" as="sourcePoint" />
            <mxPoint x="270" y="420" as="targetPoint" />
          </mxGeometry>
        </mxCell>
        <mxCell id="GpYa1Dm-OQPfosF5BOAB-27" value="include" style="edgeLabel;html=1;align=center;verticalAlign=middle;resizable=0;points=[];" vertex="1" connectable="0" parent="GpYa1Dm-OQPfosF5BOAB-26">
          <mxGeometry x="0.067" y="-1" relative="1" as="geometry">
            <mxPoint as="offset" />
          </mxGeometry>
        </mxCell>
        <mxCell id="GpYa1Dm-OQPfosF5BOAB-34" value="" style="endArrow=none;html=1;rounded=0;entryX=0.5;entryY=0.5;entryDx=0;entryDy=0;entryPerimeter=0;exitX=1;exitY=0.5;exitDx=0;exitDy=0;" edge="1" parent="1" source="GpYa1Dm-OQPfosF5BOAB-14" target="GpYa1Dm-OQPfosF5BOAB-2">
          <mxGeometry width="50" height="50" relative="1" as="geometry">
            <mxPoint x="620" y="170" as="sourcePoint" />
            <mxPoint x="115" y="225" as="targetPoint" />
          </mxGeometry>
        </mxCell>
        <mxCell id="GpYa1Dm-OQPfosF5BOAB-35" value="Client" style="swimlane;fontStyle=0;align=center;verticalAlign=top;childLayout=stackLayout;horizontal=1;startSize=26;horizontalStack=0;resizeParent=1;resizeLast=0;collapsible=1;marginBottom=0;rounded=0;shadow=0;strokeWidth=1;" vertex="1" parent="1">
          <mxGeometry x="50" y="610" width="190" height="260" as="geometry">
            <mxRectangle x="340" y="380" width="170" height="26" as="alternateBounds" />
          </mxGeometry>
        </mxCell>
        <mxCell id="GpYa1Dm-OQPfosF5BOAB-36" value="+id: int" style="text;align=left;verticalAlign=top;spacingLeft=4;spacingRight=4;overflow=hidden;rotatable=0;points=[[0,0.5],[1,0.5]];portConstraint=eastwest;" vertex="1" parent="GpYa1Dm-OQPfosF5BOAB-35">
          <mxGeometry y="26" width="190" height="26" as="geometry" />
        </mxCell>
        <mxCell id="GpYa1Dm-OQPfosF5BOAB-38" value="-contactInfo: string" style="text;align=left;verticalAlign=top;spacingLeft=4;spacingRight=4;overflow=hidden;rotatable=0;points=[[0,0.5],[1,0.5]];portConstraint=eastwest;" vertex="1" parent="GpYa1Dm-OQPfosF5BOAB-35">
          <mxGeometry y="52" width="190" height="26" as="geometry" />
        </mxCell>
        <mxCell id="GpYa1Dm-OQPfosF5BOAB-40" value="-creditCards: List&lt;CreditCard&gt;" style="text;align=left;verticalAlign=top;spacingLeft=4;spacingRight=4;overflow=hidden;rotatable=0;points=[[0,0.5],[1,0.5]];portConstraint=eastwest;" vertex="1" parent="GpYa1Dm-OQPfosF5BOAB-35">
          <mxGeometry y="78" width="190" height="26" as="geometry" />
        </mxCell>
        <mxCell id="GpYa1Dm-OQPfosF5BOAB-45" value="+account: Account" style="text;align=left;verticalAlign=top;spacingLeft=4;spacingRight=4;overflow=hidden;rotatable=0;points=[[0,0.5],[1,0.5]];portConstraint=eastwest;" vertex="1" parent="GpYa1Dm-OQPfosF5BOAB-35">
          <mxGeometry y="104" width="190" height="26" as="geometry" />
        </mxCell>
        <mxCell id="GpYa1Dm-OQPfosF5BOAB-42" value="" style="line;html=1;strokeWidth=1;align=left;verticalAlign=middle;spacingTop=-1;spacingLeft=3;spacingRight=3;rotatable=0;labelPosition=right;points=[];portConstraint=eastwest;" vertex="1" parent="GpYa1Dm-OQPfosF5BOAB-35">
          <mxGeometry y="130" width="190" height="8" as="geometry" />
        </mxCell>
        <mxCell id="GpYa1Dm-OQPfosF5BOAB-43" value="+AddCreditCard(CreditCard a)" style="text;align=left;verticalAlign=top;spacingLeft=4;spacingRight=4;overflow=hidden;rotatable=0;points=[[0,0.5],[1,0.5]];portConstraint=eastwest;" vertex="1" parent="GpYa1Dm-OQPfosF5BOAB-35">
          <mxGeometry y="138" width="190" height="26" as="geometry" />
        </mxCell>
        <mxCell id="GpYa1Dm-OQPfosF5BOAB-44" value="+RemoveCreditCard(CreditCard a)&#xa;" style="text;align=left;verticalAlign=top;spacingLeft=4;spacingRight=4;overflow=hidden;rotatable=0;points=[[0,0.5],[1,0.5]];portConstraint=eastwest;" vertex="1" parent="GpYa1Dm-OQPfosF5BOAB-35">
          <mxGeometry y="164" width="190" height="26" as="geometry" />
        </mxCell>
        <mxCell id="GpYa1Dm-OQPfosF5BOAB-69" value="+BlockAccount()" style="text;align=left;verticalAlign=top;spacingLeft=4;spacingRight=4;overflow=hidden;rotatable=0;points=[[0,0.5],[1,0.5]];portConstraint=eastwest;" vertex="1" parent="GpYa1Dm-OQPfosF5BOAB-35">
          <mxGeometry y="190" width="190" height="30" as="geometry" />
        </mxCell>
        <mxCell id="GpYa1Dm-OQPfosF5BOAB-89" value="#GetCardInfo(CreditCard c)" style="text;align=left;verticalAlign=top;spacingLeft=4;spacingRight=4;overflow=hidden;rotatable=0;points=[[0,0.5],[1,0.5]];portConstraint=eastwest;" vertex="1" parent="GpYa1Dm-OQPfosF5BOAB-35">
          <mxGeometry y="220" width="190" height="30" as="geometry" />
        </mxCell>
        <mxCell id="GpYa1Dm-OQPfosF5BOAB-47" value="привязать карту" style="ellipse;whiteSpace=wrap;html=1;" vertex="1" parent="1">
          <mxGeometry x="410" y="30" width="120" height="80" as="geometry" />
        </mxCell>
        <mxCell id="GpYa1Dm-OQPfosF5BOAB-48" value="" style="endArrow=block;dashed=1;endFill=0;endSize=12;html=1;rounded=0;entryX=0.944;entryY=0.232;entryDx=0;entryDy=0;exitX=0;exitY=0.5;exitDx=0;exitDy=0;entryPerimeter=0;" edge="1" parent="1" source="GpYa1Dm-OQPfosF5BOAB-47" target="GpYa1Dm-OQPfosF5BOAB-12">
          <mxGeometry width="160" relative="1" as="geometry">
            <mxPoint x="356" y="110" as="sourcePoint" />
            <mxPoint x="399" y="17" as="targetPoint" />
          </mxGeometry>
        </mxCell>
        <mxCell id="GpYa1Dm-OQPfosF5BOAB-51" value="extend" style="edgeLabel;html=1;align=center;verticalAlign=middle;resizable=0;points=[];" vertex="1" connectable="0" parent="GpYa1Dm-OQPfosF5BOAB-48">
          <mxGeometry x="-0.0307" y="-2" relative="1" as="geometry">
            <mxPoint as="offset" />
          </mxGeometry>
        </mxCell>
        <mxCell id="GpYa1Dm-OQPfosF5BOAB-52" value="Account" style="swimlane;fontStyle=0;align=center;verticalAlign=top;childLayout=stackLayout;horizontal=1;startSize=26;horizontalStack=0;resizeParent=1;resizeLast=0;collapsible=1;marginBottom=0;rounded=0;shadow=0;strokeWidth=1;" vertex="1" parent="1">
          <mxGeometry x="319" y="798" width="190" height="210" as="geometry">
            <mxRectangle x="340" y="380" width="170" height="26" as="alternateBounds" />
          </mxGeometry>
        </mxCell>
        <mxCell id="GpYa1Dm-OQPfosF5BOAB-53" value="-client: Client" style="text;align=left;verticalAlign=top;spacingLeft=4;spacingRight=4;overflow=hidden;rotatable=0;points=[[0,0.5],[1,0.5]];portConstraint=eastwest;" vertex="1" parent="GpYa1Dm-OQPfosF5BOAB-52">
          <mxGeometry y="26" width="190" height="26" as="geometry" />
        </mxCell>
        <mxCell id="GpYa1Dm-OQPfosF5BOAB-54" value="-balance: double" style="text;align=left;verticalAlign=top;spacingLeft=4;spacingRight=4;overflow=hidden;rotatable=0;points=[[0,0.5],[1,0.5]];portConstraint=eastwest;" vertex="1" parent="GpYa1Dm-OQPfosF5BOAB-52">
          <mxGeometry y="52" width="190" height="26" as="geometry" />
        </mxCell>
        <mxCell id="GpYa1Dm-OQPfosF5BOAB-55" value="-creditCards: List&lt;CreditCard&gt;" style="text;align=left;verticalAlign=top;spacingLeft=4;spacingRight=4;overflow=hidden;rotatable=0;points=[[0,0.5],[1,0.5]];portConstraint=eastwest;" vertex="1" parent="GpYa1Dm-OQPfosF5BOAB-52">
          <mxGeometry y="78" width="190" height="26" as="geometry" />
        </mxCell>
        <mxCell id="GpYa1Dm-OQPfosF5BOAB-59" value="+isBlocked: bool" style="text;align=left;verticalAlign=top;spacingLeft=4;spacingRight=4;overflow=hidden;rotatable=0;points=[[0,0.5],[1,0.5]];portConstraint=eastwest;" vertex="1" parent="GpYa1Dm-OQPfosF5BOAB-52">
          <mxGeometry y="104" width="190" height="26" as="geometry" />
        </mxCell>
        <mxCell id="GpYa1Dm-OQPfosF5BOAB-57" value="" style="line;html=1;strokeWidth=1;align=left;verticalAlign=middle;spacingTop=-1;spacingLeft=3;spacingRight=3;rotatable=0;labelPosition=right;points=[];portConstraint=eastwest;" vertex="1" parent="GpYa1Dm-OQPfosF5BOAB-52">
          <mxGeometry y="130" width="190" height="8" as="geometry" />
        </mxCell>
        <mxCell id="GpYa1Dm-OQPfosF5BOAB-58" value="+Deposit(double amount)" style="text;align=left;verticalAlign=top;spacingLeft=4;spacingRight=4;overflow=hidden;rotatable=0;points=[[0,0.5],[1,0.5]];portConstraint=eastwest;" vertex="1" parent="GpYa1Dm-OQPfosF5BOAB-52">
          <mxGeometry y="138" width="190" height="26" as="geometry" />
        </mxCell>
        <mxCell id="GpYa1Dm-OQPfosF5BOAB-101" value="+Withdraw(double amount)" style="text;align=left;verticalAlign=top;spacingLeft=4;spacingRight=4;overflow=hidden;rotatable=0;points=[[0,0.5],[1,0.5]];portConstraint=eastwest;" vertex="1" parent="GpYa1Dm-OQPfosF5BOAB-52">
          <mxGeometry y="164" width="190" height="26" as="geometry" />
        </mxCell>
        <mxCell id="GpYa1Dm-OQPfosF5BOAB-100" value="" style="edgeStyle=orthogonalEdgeStyle;rounded=0;orthogonalLoop=1;jettySize=auto;html=1;entryX=1;entryY=0.5;entryDx=0;entryDy=0;" edge="1" parent="1" source="GpYa1Dm-OQPfosF5BOAB-61" target="GpYa1Dm-OQPfosF5BOAB-59">
          <mxGeometry relative="1" as="geometry">
            <mxPoint x="415" y="774.9999999999998" as="targetPoint" />
          </mxGeometry>
        </mxCell>
        <mxCell id="GpYa1Dm-OQPfosF5BOAB-61" value="Administrator" style="swimlane;fontStyle=0;align=center;verticalAlign=top;childLayout=stackLayout;horizontal=1;startSize=26;horizontalStack=0;resizeParent=1;resizeLast=0;collapsible=1;marginBottom=0;rounded=0;shadow=0;strokeWidth=1;" vertex="1" parent="1">
          <mxGeometry x="590" y="870" width="190" height="90" as="geometry">
            <mxRectangle x="340" y="380" width="170" height="26" as="alternateBounds" />
          </mxGeometry>
        </mxCell>
        <mxCell id="GpYa1Dm-OQPfosF5BOAB-62" value="+BlockAccount(Account a)" style="text;align=left;verticalAlign=top;spacingLeft=4;spacingRight=4;overflow=hidden;rotatable=0;points=[[0,0.5],[1,0.5]];portConstraint=eastwest;" vertex="1" parent="GpYa1Dm-OQPfosF5BOAB-61">
          <mxGeometry y="26" width="190" height="26" as="geometry" />
        </mxCell>
        <mxCell id="GpYa1Dm-OQPfosF5BOAB-68" value="+UnblockAccount(Account a)" style="text;align=left;verticalAlign=top;spacingLeft=4;spacingRight=4;overflow=hidden;rotatable=0;points=[[0,0.5],[1,0.5]];portConstraint=eastwest;" vertex="1" parent="GpYa1Dm-OQPfosF5BOAB-61">
          <mxGeometry y="52" width="190" height="26" as="geometry" />
        </mxCell>
        <mxCell id="GpYa1Dm-OQPfosF5BOAB-79" value="CreditCard" style="swimlane;fontStyle=0;align=center;verticalAlign=top;childLayout=stackLayout;horizontal=1;startSize=26;horizontalStack=0;resizeParent=1;resizeLast=0;collapsible=1;marginBottom=0;rounded=0;shadow=0;strokeWidth=1;" vertex="1" parent="1">
          <mxGeometry x="50" y="930" width="190" height="78" as="geometry">
            <mxRectangle x="340" y="380" width="170" height="26" as="alternateBounds" />
          </mxGeometry>
        </mxCell>
        <mxCell id="GpYa1Dm-OQPfosF5BOAB-80" value="#cartNumber: string" style="text;align=left;verticalAlign=top;spacingLeft=4;spacingRight=4;overflow=hidden;rotatable=0;points=[[0,0.5],[1,0.5]];portConstraint=eastwest;" vertex="1" parent="GpYa1Dm-OQPfosF5BOAB-79">
          <mxGeometry y="26" width="190" height="26" as="geometry" />
        </mxCell>
        <mxCell id="GpYa1Dm-OQPfosF5BOAB-81" value="-pin: int" style="text;align=left;verticalAlign=top;spacingLeft=4;spacingRight=4;overflow=hidden;rotatable=0;points=[[0,0.5],[1,0.5]];portConstraint=eastwest;" vertex="1" parent="GpYa1Dm-OQPfosF5BOAB-79">
          <mxGeometry y="52" width="190" height="26" as="geometry" />
        </mxCell>
        <mxCell id="GpYa1Dm-OQPfosF5BOAB-90" value="PaymentSystem" style="swimlane;fontStyle=0;align=center;verticalAlign=top;childLayout=stackLayout;horizontal=1;startSize=26;horizontalStack=0;resizeParent=1;resizeLast=0;collapsible=1;marginBottom=0;rounded=0;shadow=0;strokeWidth=1;" vertex="1" parent="1">
          <mxGeometry x="289" y="510" width="250" height="110" as="geometry">
            <mxRectangle x="340" y="380" width="170" height="26" as="alternateBounds" />
          </mxGeometry>
        </mxCell>
        <mxCell id="GpYa1Dm-OQPfosF5BOAB-91" value="+IncreaseBalance(Account c, double a)" style="text;align=left;verticalAlign=top;spacingLeft=4;spacingRight=4;overflow=hidden;rotatable=0;points=[[0,0.5],[1,0.5]];portConstraint=eastwest;" vertex="1" parent="GpYa1Dm-OQPfosF5BOAB-90">
          <mxGeometry y="26" width="250" height="26" as="geometry" />
        </mxCell>
        <mxCell id="GpYa1Dm-OQPfosF5BOAB-92" value="+DecreaseBalance(Account c, double a)" style="text;align=left;verticalAlign=top;spacingLeft=4;spacingRight=4;overflow=hidden;rotatable=0;points=[[0,0.5],[1,0.5]];portConstraint=eastwest;" vertex="1" parent="GpYa1Dm-OQPfosF5BOAB-90">
          <mxGeometry y="52" width="250" height="26" as="geometry" />
        </mxCell>
        <mxCell id="GpYa1Dm-OQPfosF5BOAB-93" value="+IsBlocked()" style="text;align=left;verticalAlign=top;spacingLeft=4;spacingRight=4;overflow=hidden;rotatable=0;points=[[0,0.5],[1,0.5]];portConstraint=eastwest;" vertex="1" parent="GpYa1Dm-OQPfosF5BOAB-90">
          <mxGeometry y="78" width="250" height="26" as="geometry" />
        </mxCell>
        <mxCell id="GpYa1Dm-OQPfosF5BOAB-95" value="" style="endArrow=diamondThin;endFill=0;endSize=24;html=1;rounded=0;exitX=0.5;exitY=0;exitDx=0;exitDy=0;entryX=0.5;entryY=1;entryDx=0;entryDy=0;" edge="1" parent="1" source="GpYa1Dm-OQPfosF5BOAB-79" target="GpYa1Dm-OQPfosF5BOAB-35">
          <mxGeometry width="160" relative="1" as="geometry">
            <mxPoint x="450" y="850" as="sourcePoint" />
            <mxPoint x="610" y="850" as="targetPoint" />
          </mxGeometry>
        </mxCell>
        <mxCell id="GpYa1Dm-OQPfosF5BOAB-96" value="" style="endArrow=diamondThin;endFill=0;endSize=24;html=1;rounded=0;exitX=1;exitY=0.5;exitDx=0;exitDy=0;entryX=0;entryY=0.221;entryDx=0;entryDy=0;entryPerimeter=0;" edge="1" parent="1" source="GpYa1Dm-OQPfosF5BOAB-80" target="GpYa1Dm-OQPfosF5BOAB-101">
          <mxGeometry width="160" relative="1" as="geometry">
            <mxPoint x="155" y="940" as="sourcePoint" />
            <mxPoint x="310" y="920" as="targetPoint" />
          </mxGeometry>
        </mxCell>
        <mxCell id="GpYa1Dm-OQPfosF5BOAB-105" value="" style="endArrow=open;endSize=12;dashed=1;html=1;rounded=0;exitX=0.5;exitY=1;exitDx=0;exitDy=0;entryX=0.5;entryY=0;entryDx=0;entryDy=0;" edge="1" parent="1" source="GpYa1Dm-OQPfosF5BOAB-90" target="GpYa1Dm-OQPfosF5BOAB-52">
          <mxGeometry width="160" relative="1" as="geometry">
            <mxPoint x="310" y="800" as="sourcePoint" />
            <mxPoint x="470" y="800" as="targetPoint" />
          </mxGeometry>
        </mxCell>
        <mxCell id="GpYa1Dm-OQPfosF5BOAB-106" value="" style="endArrow=diamondThin;endFill=0;endSize=24;html=1;rounded=0;exitX=0.25;exitY=0;exitDx=0;exitDy=0;entryX=1.021;entryY=-0.24;entryDx=0;entryDy=0;entryPerimeter=0;" edge="1" parent="1" source="GpYa1Dm-OQPfosF5BOAB-52" target="GpYa1Dm-OQPfosF5BOAB-40">
          <mxGeometry width="160" relative="1" as="geometry">
            <mxPoint x="250" y="979" as="sourcePoint" />
            <mxPoint x="329" y="978" as="targetPoint" />
            <Array as="points">
              <mxPoint x="367" y="682" />
            </Array>
          </mxGeometry>
        </mxCell>
      </root>
    </mxGraphModel>
  </diagram>
</mxfile>
